<svg width="400" height="938" viewBox="0 0 400 938" fill="none" xmlns="http://www.w3.org/2000/svg">
<g clip-path="url(#clip0_7_40)">
<rect width="400" height="938" fill="#3C0366"/>
<path d="M333.112 0C371.306 0.00014532 400 28.7169 400 66.9375V870.901C400 909.122 371.307 937.839 333.112 937.839H66.8877C28.6934 937.839 0.000151634 909.122 0 870.901V66.9375C0.00022941 28.7169 28.6935 7.88882e-05 66.8877 0H333.112ZM4.55957 885.674C10.8417 914.597 35.4693 934.839 66.8877 934.839H135.118L148.603 885.674H4.55957ZM136.675 934.839H263.31L249.827 885.674H219.426V885.679H215.739C216.52 887.86 216.899 890.517 216.899 893.021C216.899 895.972 216.376 898.899 215.201 900.645L214.978 900.976H184.781L184.575 900.556C182.543 896.407 182.401 890.444 184.103 885.679H180.561V885.674H150.157L136.675 934.839ZM264.865 934.839H333.112C364.531 934.839 389.157 914.597 395.439 885.674H251.382L264.865 934.839ZM3 870.901C3.00002 875.482 3.42834 879.918 4.25098 884.174H180.561V863.508L180.784 863.287L180.787 863.284C180.788 863.283 180.79 863.28 180.792 863.278C180.797 863.274 180.804 863.268 180.812 863.261C180.828 863.245 180.85 863.223 180.88 863.195C180.939 863.14 181.026 863.061 181.139 862.961C181.365 862.761 181.697 862.479 182.131 862.144C182.998 861.472 184.274 860.582 185.919 859.692C189.209 857.914 193.99 856.133 199.944 856.133C205.994 856.133 210.799 857.912 214.091 859.692C215.737 860.582 217.007 861.473 217.869 862.146C218.3 862.481 218.63 862.763 218.854 862.963C218.965 863.063 219.052 863.143 219.11 863.198C219.14 863.226 219.163 863.248 219.179 863.264L219.426 863.511V884.174H395.748C396.571 879.918 397 875.482 397 870.901V588.276H3V870.901ZM199.944 857.633C194.295 857.633 189.759 859.322 186.633 861.012C185.07 861.857 183.863 862.701 183.05 863.33C182.644 863.645 182.336 863.905 182.132 864.085C182.106 864.107 182.083 864.13 182.061 864.149V884.174H184.714L184.761 884.068H215.055L215.104 884.174H217.926V864.146C217.904 864.127 217.881 864.104 217.855 864.082C217.654 863.903 217.35 863.642 216.947 863.328C216.141 862.699 214.94 861.856 213.378 861.012C210.254 859.323 205.693 857.633 199.944 857.633ZM302.544 725.803C337.237 725.803 365.935 751.639 370.468 785.121V783.659H384.48V785.159H370.473C370.88 788.183 371.093 791.269 371.093 794.404C371.093 795.511 371.065 796.612 371.013 797.706H384.48V799.206H370.926C370.284 808.485 367.794 817.256 363.825 825.157C352.63 847.816 329.295 863.412 302.341 863.412C265.977 863.412 236.195 835.029 233.929 799.206H221.015V797.706H233.852C233.812 796.746 233.791 795.78 233.791 794.811C233.791 791.535 234.021 788.313 234.465 785.159H221.015V783.659H234.693C235.834 776.688 238.025 770.07 241.1 763.972C252.312 741.359 275.623 725.803 302.544 725.803ZM302.341 727.709C276.152 727.709 253.454 742.762 242.419 764.688C237.986 773.647 235.494 783.736 235.494 794.404C235.494 831.445 265.534 861.506 302.544 861.506C328.744 861.506 351.449 846.44 362.478 824.499C366.902 815.547 369.39 805.468 369.39 794.811C369.389 757.77 339.35 727.709 302.341 727.709ZM96.8691 722.831C132.082 722.831 161.12 749.446 164.981 783.659H178.979V785.159H165.134C165.321 787.225 165.418 789.318 165.418 791.433C165.418 793.547 165.321 795.64 165.134 797.706H178.979V799.206H164.981C161.12 833.417 132.083 860.034 96.8691 860.034C61.6563 860.034 32.6173 833.419 28.7559 799.206H15.5039V797.706H28.6035C28.4161 795.64 28.3193 793.547 28.3193 791.433C28.3193 789.318 28.4161 787.225 28.6035 785.159H15.5039V783.659H28.7559C32.617 749.448 61.6548 722.831 96.8691 722.831ZM96.8691 724.331C59.858 724.331 29.8193 754.393 29.8193 791.433C29.8195 828.473 59.8597 858.534 96.8691 858.534C133.88 858.534 163.918 828.472 163.918 791.433C163.918 754.392 133.879 724.331 96.8691 724.331ZM93.7637 819.483H92.2637V801.536H79.001V800.036H93.7637V819.483ZM115.482 801.536H102.22V819.483H100.72V800.036H115.482V801.536ZM299.266 819.483H297.766V801.536H284.503V800.036H299.266V819.483ZM321 801.536H307.737V819.483H306.237V800.036H321V801.536ZM97.1719 786.667C99.8153 786.667 101.958 788.812 101.958 791.457C101.958 794.102 99.8155 796.247 97.1719 796.247C94.5285 796.247 92.3848 794.102 92.3848 791.457C92.3848 788.812 94.5282 786.667 97.1719 786.667ZM302.896 786.45C305.539 786.45 307.681 788.595 307.682 791.24C307.682 793.885 305.539 796.03 302.896 796.03C300.252 796.03 298.108 793.885 298.108 791.24C298.109 788.595 300.252 786.45 302.896 786.45ZM94.7607 795.004C95.4478 795.473 96.2779 795.747 97.1719 795.747C98.0656 795.747 98.8953 795.472 99.582 795.004H94.7607ZM300.485 794.788C301.172 795.256 302.002 795.53 302.896 795.53C303.789 795.53 304.619 795.256 305.306 794.788H300.485ZM97.1719 787.167C96.274 787.167 95.4407 787.444 94.752 787.916H99.5918C98.9032 787.444 98.0696 787.167 97.1719 787.167ZM302.896 786.95C301.998 786.95 301.164 787.228 300.476 787.7H305.315C304.627 787.228 303.793 786.95 302.896 786.95ZM93.7637 782.845H79.001V781.345H92.2637V763.397H93.7637V782.845ZM102.22 781.345H115.482V782.845H100.72V763.397H102.22V781.345ZM299.266 782.845H284.503V781.345H297.766V763.397H299.266V782.845ZM307.737 781.345H321V782.845H306.237V763.397H307.737V781.345ZM3 583.276H397V471.418L268.292 471.411C266.737 507.902 236.654 537.044 199.808 537.044C162.96 537.044 132.873 507.899 131.322 471.402L3 471.396V583.276ZM97.2783 557.535C99.9217 557.536 102.064 559.68 102.064 562.325C102.064 564.97 99.9218 567.115 97.2783 567.115C94.6347 567.115 92.4913 564.971 92.4912 562.325C92.4912 559.68 94.6345 557.535 97.2783 557.535ZM302.705 557.535C305.348 557.536 307.491 559.68 307.491 562.325C307.491 564.97 305.349 567.115 302.705 567.115C300.061 567.115 297.918 564.971 297.918 562.325C297.918 559.68 300.061 557.535 302.705 557.535ZM94.8662 565.872C95.5534 566.341 96.384 566.615 97.2783 566.615C98.1724 566.615 99.0025 566.341 99.6895 565.872H94.8662ZM300.293 565.872C300.98 566.341 301.811 566.615 302.705 566.615C303.599 566.615 304.429 566.341 305.116 565.872H300.293ZM97.2783 558.035C96.3802 558.035 95.5463 558.312 94.8574 558.784H99.6982C99.0096 558.312 98.1762 558.035 97.2783 558.035ZM302.705 558.035C301.807 558.035 300.973 558.312 300.284 558.784H305.125C304.436 558.312 303.603 558.035 302.705 558.035ZM132.823 471.402C134.373 507.071 163.789 535.544 199.808 535.544C235.825 535.544 265.236 507.075 266.79 471.411L132.823 471.402ZM3 466.396L131.288 466.402C132.367 429.478 162.649 399.841 199.808 399.841C236.968 399.841 267.25 429.481 268.325 466.411L397 466.418V354.57H3V466.396ZM199.808 401.341C163.479 401.341 133.869 430.306 132.79 466.402L266.825 466.411C265.751 430.309 236.138 401.341 199.808 401.341ZM302.705 370.692C305.348 370.693 307.491 372.837 307.491 375.482C307.491 378.127 305.349 380.272 302.705 380.272C300.061 380.272 297.918 378.128 297.918 375.482C297.918 372.837 300.061 370.692 302.705 370.692ZM97.4688 370.501C100.112 370.501 102.255 372.646 102.255 375.291C102.255 377.936 100.112 380.081 97.4688 380.081C94.8252 380.081 92.6816 377.936 92.6816 375.291C92.6818 372.646 94.8252 370.501 97.4688 370.501ZM300.292 379.029C300.979 379.498 301.81 379.772 302.705 379.772C303.599 379.772 304.429 379.498 305.116 379.029H300.292ZM95.0566 378.838C95.7439 379.307 96.5743 379.581 97.4688 379.581C98.3628 379.581 99.1929 379.307 99.8799 378.838H95.0566ZM302.705 371.192C301.807 371.192 300.973 371.469 300.284 371.941H305.124C304.436 371.469 303.603 371.193 302.705 371.192ZM97.4688 371.001C96.5707 371.001 95.7376 371.279 95.0488 371.751H99.8887C99.2 371.279 98.3667 371.001 97.4688 371.001ZM4.25098 53.666C3.42847 57.9217 3.00003 62.3576 3 66.9375V349.57H397V66.9375C397 62.3576 396.571 57.9217 395.748 53.666H219.426V74.334L219.206 74.5537L218.676 74.0234L219.205 74.5537V74.5547L219.203 74.5566C219.202 74.558 219.199 74.5594 219.197 74.5615C219.193 74.566 219.187 74.5725 219.179 74.5801C219.163 74.5956 219.14 74.6177 219.11 74.6455C219.052 74.7012 218.965 74.7809 218.854 74.8809C218.63 75.0808 218.3 75.3632 217.869 75.6992C217.007 76.3713 215.736 77.2625 214.091 78.1523C210.799 79.9322 205.994 81.7118 199.944 81.7119C193.99 81.7119 189.209 79.9311 185.919 78.1523C184.274 77.2629 182.998 76.3716 182.131 75.7002C181.697 75.3646 181.365 75.0833 181.139 74.8838C181.026 74.7842 180.939 74.704 180.88 74.6484C180.851 74.6211 180.828 74.5994 180.812 74.584C180.804 74.5764 180.797 74.5699 180.792 74.5654C180.79 74.5634 180.788 74.561 180.787 74.5596L180.785 74.5586L180.784 74.5576C180.784 74.5574 180.784 74.5571 181.311 74.0234L180.784 74.5566L180.561 74.3369V53.666H4.25098ZM97.3379 78.2588C132.374 78.2589 161.297 104.607 165.391 138.571H178.979V140.071H165.555C165.774 142.305 165.888 144.569 165.888 146.86C165.888 148.799 165.806 150.719 165.648 152.617H178.979V154.117H165.508C161.882 188.577 132.729 215.462 97.3379 215.462C61.9481 215.462 32.7948 188.578 29.1689 154.117H15.5039V152.617H29.0273C28.8695 150.719 28.7881 148.799 28.7881 146.86C28.7881 144.569 28.9015 142.305 29.1211 140.071H15.5039V138.571H29.2852C33.3784 104.608 62.3007 78.2589 97.3379 78.2588ZM301.84 77.0859C339.679 77.0861 370.389 107.819 370.389 145.688C370.388 183.554 339.68 214.289 301.84 214.289C266.853 214.289 237.961 188.013 233.805 154.117H221.015V152.617H233.637C233.408 150.338 233.29 148.026 233.29 145.688C233.29 143.797 233.368 141.924 233.519 140.071H221.015V138.571H233.656C237.217 104.044 266.4 77.0861 301.84 77.0859ZM97.3379 79.7588C60.3268 79.7589 30.2881 109.821 30.2881 146.86C30.2882 183.901 60.3284 213.962 97.3379 213.962C134.349 213.962 164.388 183.9 164.388 146.86C164.388 109.82 134.347 79.7589 97.3379 79.7588ZM301.84 78.5859C266.735 78.5861 237.904 105.631 235.027 140.023V140.071H235.023C234.87 141.923 234.79 143.796 234.79 145.688C234.79 182.728 264.831 212.789 301.84 212.789C338.851 212.789 368.888 182.727 368.889 145.688C368.889 108.647 338.849 78.5861 301.84 78.5859ZM93.7637 174.442H92.2637V156.495H79.001V154.995H93.7637V174.442ZM115.482 156.495H102.22V174.442H100.72V154.995H115.482V156.495ZM299.266 174.442H297.766V156.495H284.503V154.995H299.266V174.442ZM321 156.495H307.737V174.442H306.237V154.995H321V156.495ZM384.48 154.117H370.468V152.617H384.48V154.117ZM302.896 141.777C305.539 141.778 307.682 143.922 307.682 146.567C307.681 149.212 305.539 151.357 302.896 151.357C300.252 151.357 298.109 149.212 298.108 146.567C298.108 143.922 300.252 141.778 302.896 141.777ZM97.5117 141.398C98.0629 141.421 98.607 141.539 99.1191 141.747C99.7046 141.985 100.238 142.338 100.687 142.783C101.135 143.228 101.491 143.758 101.734 144.342C101.978 144.926 102.104 145.552 102.104 146.185C102.103 146.817 101.977 147.444 101.734 148.027C101.491 148.611 101.135 149.141 100.687 149.586C100.238 150.031 99.7045 150.384 99.1191 150.622C98.534 150.86 97.907 150.98 97.2754 150.975C96.6448 150.979 96.0188 150.86 95.4346 150.622C94.8492 150.384 94.3169 150.031 93.8682 149.586C93.4194 149.141 93.0624 148.611 92.8193 148.027C92.5762 147.444 92.4512 146.817 92.4512 146.185C92.4512 145.552 92.5763 144.926 92.8193 144.342C93.0624 143.758 93.4195 143.228 93.8682 142.783C94.3169 142.338 94.8493 141.985 95.4346 141.747C96.0188 141.509 96.6448 141.39 97.2754 141.395L97.5117 141.398ZM300.485 150.114C301.172 150.583 302.002 150.857 302.896 150.857C303.789 150.857 304.619 150.583 305.306 150.114H300.485ZM94.8291 149.731C95.0777 149.9 95.3433 150.044 95.623 150.158C96.1473 150.372 96.7095 150.479 97.2754 150.475H97.2793C97.8451 150.48 98.4065 150.371 98.9307 150.158C99.2103 150.044 99.4761 149.9 99.7246 149.731H94.8291ZM302.896 142.277C301.998 142.277 301.164 142.554 300.476 143.026H305.315C304.627 142.554 303.793 142.277 302.896 142.277ZM97.2754 141.895C96.7095 141.89 96.1473 141.998 95.623 142.211C95.34 142.326 95.0715 142.472 94.8203 142.644H99.7344C99.4831 142.472 99.2139 142.326 98.9307 142.211C98.4065 141.998 97.8451 141.89 97.2793 141.895H97.2754ZM384.48 140.071H370.468V138.571H384.48V140.071ZM93.7637 137.803H79.001V136.303H92.2637V118.355H93.7637V137.803ZM102.22 136.303H115.482V137.803H100.72V118.355H102.22V136.303ZM299.266 137.803H284.503V136.303H297.766V118.355H299.266V137.803ZM307.737 136.303H321V137.803H306.237V118.355H307.737V136.303ZM182.061 73.6943C182.083 73.7142 182.106 73.7363 182.132 73.7588C182.336 73.9386 182.644 74.2002 183.05 74.5146C183.863 75.1441 185.07 75.9883 186.633 76.833C189.759 78.5232 194.295 80.2119 199.944 80.2119C205.693 80.2118 210.254 78.5221 213.378 76.833C214.94 75.9885 216.14 75.1444 216.946 74.5156C217.349 74.2014 217.654 73.9412 217.855 73.7617C217.881 73.739 217.904 73.7163 217.926 73.6963V53.666H215.105L215.055 53.7744H184.761L184.713 53.666H182.061V73.6943ZM66.8877 3C35.469 3.00007 10.8414 23.242 4.55957 52.166H148.602L135.117 3H66.8877ZM150.157 52.166H184.103C182.4 47.4008 182.542 41.4364 184.575 37.2871L184.781 36.8672H214.978L215.201 37.1982C216.376 38.9433 216.899 41.8702 216.899 44.8203C216.899 47.3261 216.519 49.9838 215.738 52.166H249.827L263.311 3H136.674L150.157 52.166ZM251.383 52.166H395.44C389.216 23.5047 364.977 3.36846 333.967 3.00488L333.112 3H264.866L251.383 52.166Z" fill="#59168B"/>
</g>
<defs>
<clipPath id="clip0_7_40">
<rect width="400" height="938" fill="white"/>
</clipPath>
</defs>
</svg>
