<svg width="40" height="32" viewBox="0 0 40 32" fill="none" xmlns="http://www.w3.org/2000/svg">
    <path
        d="M20 17.5012C8.9551 17.5012 0.0012207 13.9041 0.0012207 9.46478V22.5012H0.0619003C0.0619003 27.2536 8.9903 31.1092 20 31.1092C31.0158 31.1092 39.9418 27.2536 39.9418 22.5012H40V9.46478C40.0012 13.9041 31.0461 17.5012 20 17.5012Z"
        fill="url(#paint0_linear_14_791)" />
    <path
        d="M20 16.0728C31.0457 16.0728 40 12.4748 40 8.03641C40 3.59802 31.0457 0 20 0C8.9543 0 0 3.59802 0 8.03641C0 12.4748 8.9543 16.0728 20 16.0728Z"
        fill="url(#paint1_linear_14_791)" />
    <defs>
        <linearGradient id="paint0_linear_14_791" x1="20.0006" y1="9.46478" x2="20.0006" y2="31.1092"
            gradientUnits="userSpaceOnUse">
            <stop stop-color="#FF8904" />
            <stop offset="1" stop-color="#FF6900" />
        </linearGradient>
        <linearGradient id="paint1_linear_14_791" x1="20" y1="0" x2="20" y2="16.0728" gradientUnits="userSpaceOnUse">
            <stop stop-color="#FF8904" />
            <stop offset="1" stop-color="#FF6900" />
        </linearGradient>
    </defs>
</svg>