<svg width="25" height="53" viewBox="0 0 25 53" fill="none" xmlns="http://www.w3.org/2000/svg">
<path d="M16.5137 0.5C16.3943 0.810131 16.2444 1.21058 16.0742 1.67773C15.663 2.80642 15.1215 4.33682 14.5576 5.94531C13.4282 9.167 12.2093 12.6992 11.749 13.9873H11.75C11.7481 13.9925 11.7459 13.9976 11.7441 14.0029C11.6607 14.2628 11.8011 14.5422 12.0596 14.6299C12.1903 14.6741 12.3266 14.6603 12.4414 14.6035C12.4498 14.6007 12.4605 14.5978 12.4736 14.5938C12.5328 14.5753 12.6246 14.5481 12.749 14.5137C12.9964 14.4452 13.3555 14.3504 13.8008 14.2344C14.6909 14.0024 15.9165 13.6899 17.2666 13.3438C19.5337 12.7625 22.1529 12.0834 24.1064 11.5449L23.5264 12.835L23.5176 12.8574C23.4936 12.9072 18.9385 22.7946 14.3633 32.7236C12.0722 37.6958 9.78076 42.6676 8.0625 46.3965C7.76038 47.0521 7.47551 47.6692 7.21191 48.2412L13.2314 21.8994C13.2705 21.7283 13.2173 21.5494 13.0908 21.4277C12.9641 21.3062 12.7827 21.2596 12.6133 21.3057L0.685547 24.5527L5.31055 5.58008C5.3118 5.57495 5.31239 5.56962 5.31348 5.56445L6.37695 0.5H16.5137ZM12.5166 14.5576C12.4871 14.5791 12.4625 14.5924 12.4541 14.5967L12.4512 14.5977C12.4736 14.5859 12.4951 14.5727 12.5156 14.5576H12.5166ZM12.6426 14.4209C12.6332 14.4358 12.6229 14.4478 12.6143 14.459C12.6239 14.4465 12.6341 14.4345 12.6426 14.4209ZM12.6855 14.333C12.6756 14.3592 12.664 14.382 12.6523 14.4023C12.6649 14.3802 12.6763 14.3575 12.6855 14.333Z" fill="#FF8904" stroke="#FFB86A" stroke-linejoin="round"/>
</svg>
